<?xml version="1.0" encoding="UTF-8"?>
<svg version="1.1" xmlns="http://www.w3.org/2000/svg" width="512" height="512">
<path d="M0 0 C0.77220179 -0.00320648 1.54440358 -0.00641296 2.34000543 -0.0097166 C4.9248363 -0.01801103 7.50943513 -0.01209428 10.09426975 -0.00622082 C11.96727051 -0.00924175 13.84027004 -0.01313094 15.71326739 -0.01781338 C20.85834278 -0.02810954 26.00334861 -0.02590744 31.14842975 -0.02163279 C36.69793984 -0.01916853 42.24743305 -0.02817597 47.79693699 -0.03567028 C58.66800302 -0.04842736 69.53904435 -0.05020974 80.41011661 -0.04787002 C89.24474356 -0.04608793 98.07936301 -0.04783415 106.91398907 -0.05209446 C108.17074486 -0.05268965 109.42750065 -0.05328484 110.72233995 -0.05389806 C113.27532136 -0.0551098 115.82830277 -0.05632393 118.38128418 -0.05754044 C135.52548872 -0.06532887 152.66969042 -0.0692459 169.81389618 -0.06522369 C170.48425088 -0.06506732 171.15460558 -0.06491094 171.84527405 -0.06474983 C175.24286795 -0.06394405 178.64046183 -0.06309828 182.03805571 -0.06223653 C183.05020869 -0.06197989 183.05020869 -0.06197989 184.0828092 -0.06171808 C185.44735469 -0.06137142 186.81190018 -0.06102289 188.17644568 -0.06067249 C209.41164845 -0.05531457 230.64680971 -0.06324799 251.88200474 -0.08170605 C275.74192376 -0.10242129 299.60181725 -0.11311864 323.46174818 -0.10913056 C336.09447794 -0.10721646 348.72716987 -0.1097265 361.35989285 -0.1238451 C372.11341267 -0.13574173 382.86687138 -0.13718305 393.62039202 -0.12505493 C399.10791855 -0.11915437 404.59533319 -0.11809939 410.08285236 -0.13005733 C415.10572813 -0.14087569 420.12839804 -0.13786108 425.15126402 -0.12379565 C426.96881621 -0.12113756 428.78638432 -0.12354998 430.60392093 -0.13153151 C433.07473234 -0.14162915 435.544827 -0.13322305 438.01560974 -0.12025452 C439.07364342 -0.13121854 439.07364342 -0.13121854 440.15305153 -0.14240405 C446.13160573 -0.07737668 451.61203215 1.24554327 456.31291294 5.08650684 C456.85174107 5.74006153 457.39056919 6.39361622 457.94572544 7.06697559 C458.50002232 7.71279591 459.05431919 8.35861622 459.62541294 9.02400684 C462.90923101 14.09173689 463.36171142 19.16185358 463.32520103 25.06070232 C463.32840751 25.83175027 463.33161399 26.60279822 463.33491763 27.39721125 C463.34322729 29.98413833 463.33728997 32.57083447 463.33142185 35.15776539 C463.33444209 37.0299031 463.33833093 38.90203957 463.34301442 40.77417386 C463.35331957 45.92150856 463.35110619 51.06877381 463.34683383 56.21611428 C463.34437117 61.76632363 463.35337504 67.31651606 463.36087132 72.86671925 C463.37363317 83.74126449 463.37541015 94.61578505 463.37307105 105.49033652 C463.37128939 114.32784781 463.37303427 123.16535159 463.37729549 132.00286198 C463.37789068 133.25975326 463.37848587 134.51664454 463.3790991 135.81162343 C463.38031082 138.36484638 463.38152496 140.91806933 463.38274147 143.47129227 C463.39053091 160.61936703 463.39444626 177.76743896 463.39042473 194.91551495 C463.39026835 195.58613566 463.39011198 196.25675638 463.38995086 196.94769893 C463.38914508 200.34668365 463.38829931 203.74566836 463.38743756 207.14465307 C463.38718093 208.15722955 463.38718093 208.15722955 463.38691911 209.19026213 C463.38657246 210.55537929 463.38622393 211.92049645 463.38587353 213.28561361 C463.38051619 234.52736657 463.38844691 255.76907803 463.40690708 277.01082325 C463.42762242 300.87549604 463.43831959 324.7401433 463.4343316 348.604828 C463.43241741 361.24092611 463.43492825 373.87698641 463.44904613 386.51307774 C463.46094298 397.27028158 463.46238389 408.02742432 463.45025597 418.78462897 C463.44435537 424.27417381 463.44330048 429.76360679 463.45525837 435.25314426 C463.46607675 440.27791033 463.46306208 445.30247062 463.44899669 450.32722689 C463.44633858 452.14548191 463.44875105 453.96375285 463.45673255 455.7819923 C463.46683015 458.25376544 463.45842411 460.7248221 463.44545555 463.19656658 C463.4527649 463.90220822 463.46007424 464.60784985 463.46760508 465.33487457 C463.3993195 471.61539794 461.66430093 476.65753775 458.38322544 482.00447559 C453.09578561 487.14901164 447.26359965 488.85402436 439.95593357 488.75784016 C439.17582444 488.76365392 438.39571531 488.76946768 437.59196651 488.77545762 C434.98601642 488.79001957 432.38101387 488.77619058 429.77507114 488.76241016 C427.88470479 488.76702059 425.99434202 488.77337445 424.10398674 488.78131914 C418.91548792 488.7980161 413.72728342 488.78976432 408.53878355 488.77737427 C402.94087989 488.76832766 397.34302699 488.78229159 391.7451334 488.79329395 C380.78126382 488.81108787 369.81750372 488.80723526 358.85362983 488.79564339 C349.94369625 488.7866128 341.03379338 488.78538345 332.12385654 488.78973866 C330.8561348 488.79035159 329.58841305 488.79096452 328.2822755 488.79159603 C325.70698761 488.79287492 323.13169973 488.79417177 320.55641186 488.79548639 C297.09201878 488.80656948 273.62769923 488.79507253 250.1633193 488.774116 C228.74668051 488.7551338 207.33013685 488.75683232 185.91349888 488.77595997 C161.84736998 488.79738212 137.781306 488.80579609 113.71516418 488.79351091 C111.14930758 488.79223671 108.58345096 488.79097922 106.01759434 488.78973866 C104.12387898 488.788813 104.12387898 488.788813 102.19190675 488.78786865 C93.29185034 488.78441379 84.39182766 488.79024703 75.49177647 488.79965687 C64.64676344 488.81087094 53.80186624 488.80784917 42.9568665 488.78653389 C37.42272679 488.77601561 31.88878024 488.77191507 26.35464191 488.7851305 C21.28918282 488.79704387 16.22409607 488.79050901 11.15867078 488.76922029 C9.32567442 488.76474979 7.49264665 488.76703053 5.65967047 488.77672344 C3.16783906 488.78889028 0.67728234 488.77641003 -1.81448269 488.75784016 C-2.52597001 488.76720482 -3.23745733 488.77656949 -3.97050488 488.78621793 C-9.87930716 488.69822235 -15.0940643 486.86355296 -19.46349412 482.8426235 C-24.24095095 477.40644856 -25.22680111 472.55398143 -25.18654346 465.50882721 C-25.19004954 464.73217961 -25.19355561 463.95553201 -25.19716793 463.15534964 C-25.20649897 460.54335713 -25.20155424 457.93158674 -25.1967001 455.31958485 C-25.2004355 453.43181069 -25.20503657 451.54403808 -25.21043074 449.65626794 C-25.22268976 444.46107112 -25.22239686 439.26593856 -25.22004199 434.07073057 C-25.21963456 428.47073931 -25.23066593 422.87076885 -25.24015713 417.27078724 C-25.25678393 406.29651174 -25.26226743 395.32225772 -25.26338188 384.34797069 C-25.26433155 375.42939015 -25.26843775 366.51081672 -25.27478313 357.59223843 C-25.28953239 336.43181301 -25.30183238 315.27139271 -25.30078602 294.11096191 C-25.30075486 293.43414374 -25.3007237 292.75732557 -25.3006916 292.05999776 C-25.30052539 288.62955602 -25.3003273 285.19911428 -25.30012219 281.76867255 C-25.3000823 281.08736746 -25.30004241 280.40606237 -25.30000131 279.70411167 C-25.29992043 278.32634649 -25.29983684 276.94858131 -25.29975052 275.57081612 C-25.29852499 254.13453161 -25.31353823 232.69831036 -25.34089565 211.26204395 C-25.37161485 187.18166196 -25.38880291 163.10133241 -25.38696921 139.02092534 C-25.38630464 126.26966181 -25.39182604 113.51846962 -25.41332531 100.7672224 C-25.43151158 89.91116866 -25.43590544 79.05521861 -25.42230646 68.19915625 C-25.41576398 62.65895382 -25.41570587 57.11895047 -25.43301296 51.57876682 C-25.44869197 46.50764988 -25.44593296 41.43689072 -25.4284447 36.36578277 C-25.42536339 34.5306726 -25.42904954 32.69553606 -25.44016485 30.86045697 C-25.45427549 28.36575396 -25.44370864 25.87230778 -25.4270525 23.3776474 C-25.43698886 22.66530253 -25.44692522 21.95295767 -25.45716268 21.2190266 C-25.37338884 15.28354215 -23.4967275 10.19164016 -19.58820143 5.72028876 C-13.94823672 0.58096507 -7.3215458 -0.04548425 0 0 Z " fill="#004AAC" transform="translate(36.929274559020996,6.7455244064331055)"/>
<path d="M0 0 C0.71188477 0.23702637 1.42376953 0.47405273 2.15722656 0.71826172 C43.7838676 14.6785226 77.39115845 43.68674878 97 83 C107.44876166 104.45981044 112.18788441 126.51132061 112.18530273 150.36083984 C112.1874746 152.59883071 112.20563574 154.83631565 112.22460938 157.07421875 C112.28214649 171.57988591 110.2122147 185.11567845 106 199 C105.71479492 199.96365479 105.71479492 199.96365479 105.42382812 200.94677734 C99.9862668 218.93975691 91.16709563 236.62826824 79 251 C78.08110947 252.11773242 77.16318961 253.23626334 76.24609375 254.35546875 C52.71719834 282.84056165 18.87796446 304.20240039 -18 310 C-19.72863281 310.30357422 -19.72863281 310.30357422 -21.4921875 310.61328125 C-44.73371204 314.16474082 -69.60370034 313.31952899 -92 306 C-93.37555538 305.59511073 -94.75189795 305.19288881 -96.12890625 304.79296875 C-113.94414299 299.45078263 -130.47708296 290.6062707 -145 279 C-145.5779834 278.54012695 -146.1559668 278.08025391 -146.75146484 277.60644531 C-176.52034609 253.63880421 -196.64164643 220.52719687 -204 183 C-204.17877686 182.16049805 -204.35755371 181.32099609 -204.54174805 180.45605469 C-206.17542461 172.01769679 -206.33910668 163.7280668 -206.31567383 155.16552734 C-206.31252291 152.76743647 -206.33602719 150.37059494 -206.36132812 147.97265625 C-206.41842227 133.81339973 -204.15743724 120.56340385 -200 107 C-199.49533203 105.31197266 -199.49533203 105.31197266 -198.98046875 103.58984375 C-194.16147745 88.26255035 -187.32290584 74.09664285 -178 61 C-177.39961914 60.15622803 -177.39961914 60.15622803 -176.78710938 59.29541016 C-161.54277362 38.23542033 -142.06805389 21.83466324 -119 10 C-118.37770508 9.67660645 -117.75541016 9.35321289 -117.11425781 9.02001953 C-107.41663236 4.03857226 -97.53712277 0.73146015 -87 -2 C-85.87722656 -2.29777344 -84.75445312 -2.59554687 -83.59765625 -2.90234375 C-56.45673772 -9.64563748 -26.5311624 -9.10727539 0 0 Z " fill="#014BAD" transform="translate(303,58)"/>
<path d="M0 0 C0.71188477 0.23702637 1.42376953 0.47405273 2.15722656 0.71826172 C43.7838676 14.6785226 77.39115845 43.68674878 97 83 C107.44876166 104.45981044 112.18788441 126.51132061 112.18530273 150.36083984 C112.1874746 152.59883071 112.20563574 154.83631565 112.22460938 157.07421875 C112.28214649 171.57988591 110.2122147 185.11567845 106 199 C105.71479492 199.96365479 105.71479492 199.96365479 105.42382812 200.94677734 C99.9862668 218.93975691 91.16709563 236.62826824 79 251 C78.08110947 252.11773242 77.16318961 253.23626334 76.24609375 254.35546875 C52.71719834 282.84056165 18.87796446 304.20240039 -18 310 C-19.72863281 310.30357422 -19.72863281 310.30357422 -21.4921875 310.61328125 C-44.73371204 314.16474082 -69.60370034 313.31952899 -92 306 C-93.37555538 305.59511073 -94.75189795 305.19288881 -96.12890625 304.79296875 C-113.94414299 299.45078263 -130.47708296 290.6062707 -145 279 C-145.5779834 278.54012695 -146.1559668 278.08025391 -146.75146484 277.60644531 C-176.52034609 253.63880421 -196.64164643 220.52719687 -204 183 C-204.17877686 182.16049805 -204.35755371 181.32099609 -204.54174805 180.45605469 C-206.17542461 172.01769679 -206.33910668 163.7280668 -206.31567383 155.16552734 C-206.31252291 152.76743647 -206.33602719 150.37059494 -206.36132812 147.97265625 C-206.41842227 133.81339973 -204.15743724 120.56340385 -200 107 C-199.49533203 105.31197266 -199.49533203 105.31197266 -198.98046875 103.58984375 C-194.16147745 88.26255035 -187.32290584 74.09664285 -178 61 C-177.39961914 60.15622803 -177.39961914 60.15622803 -176.78710938 59.29541016 C-161.54277362 38.23542033 -142.06805389 21.83466324 -119 10 C-118.37770508 9.67660645 -117.75541016 9.35321289 -117.11425781 9.02001953 C-107.41663236 4.03857226 -97.53712277 0.73146015 -87 -2 C-85.87722656 -2.29777344 -84.75445312 -2.59554687 -83.59765625 -2.90234375 C-56.45673772 -9.64563748 -26.5311624 -9.10727539 0 0 Z M-160 59 C-174.06285921 75.80597398 -183.47220961 95.93449943 -189 117 C-189.31066406 118.18335938 -189.62132812 119.36671875 -189.94140625 120.5859375 C-194.92126031 140.84215546 -195.08755326 163.76810216 -190 184 C-189.69255859 185.48306641 -189.69255859 185.48306641 -189.37890625 186.99609375 C-182.45320813 218.69944478 -162.70817147 248.8670224 -136.9375 268.4375 C-135.8249585 269.28272217 -135.8249585 269.28272217 -134.68994141 270.14501953 C-128.09418249 275.07100183 -121.33502279 279.23695886 -114 283 C-113.41041504 283.30631348 -112.82083008 283.61262695 -112.21337891 283.92822266 C-80.34826275 300.3098864 -40.8637115 304.32419446 -6.5625 293.625 C-4.02717508 292.78530839 -1.51606042 291.89782498 1 291 C2.0828125 290.63132812 3.165625 290.26265625 4.28125 289.8828125 C25.35131664 282.32053611 43.14743841 269.61977801 59 254 C59.76441406 253.24847656 60.52882813 252.49695313 61.31640625 251.72265625 C89.87693816 221.83372751 100.02408998 182.57419513 99.13623047 142.36132812 C98.33969416 122.70772262 92.87831593 104.43134873 84 87 C83.1646875 85.31583984 83.1646875 85.31583984 82.3125 83.59765625 C65.35209062 50.57982225 35.0320852 25.65112047 0 14 C-2.98843008 13.06169125 -5.98848665 12.17370273 -9 11.3125 C-10.04873291 11.00856323 -10.04873291 11.00856323 -11.11865234 10.69848633 C-23.04415236 7.42409646 -35.00668251 6.5586954 -47.3125 6.5625 C-48.05167664 6.5614325 -48.79085327 6.56036499 -49.5524292 6.55926514 C-93.32170791 6.64990913 -130.97372972 26.87841964 -160 59 Z " fill="#FAFBFD" transform="translate(303,58)"/>
<path d="M0 0 C1.78662547 3.48391968 1.21480532 5.71610804 0.25 9.4375 C-2.04905896 11.73655896 -2.64340857 11.73968957 -5.7578125 12.04296875 C-23.27939338 14.02853982 -39.50121921 18.6768749 -51.06689453 33.07714844 C-56.34574493 40.19745828 -60.43145114 47.84805732 -62.75 56.4375 C-63.08990967 57.61296387 -63.42981934 58.78842773 -63.7800293 59.99951172 C-65.27310685 66.81328777 -65.0302043 73.77275788 -65.02439499 80.71209145 C-65.02342144 83.28064428 -65.03646517 85.84878817 -65.05337524 88.4172821 C-65.09942462 95.71313455 -65.12428077 103.00893853 -65.13085938 110.30493164 C-65.13586852 114.78289662 -65.16007281 119.26042428 -65.19618607 123.7382412 C-65.20598387 125.4402625 -65.2083161 127.1423439 -65.20301437 128.84438515 C-65.19595751 131.21875712 -65.21319076 133.59181665 -65.23583984 135.96606445 C-65.22766739 136.66690155 -65.21949493 137.36773865 -65.21107483 138.08981323 C-65.26825037 141.45522967 -65.54671814 143.17355172 -67.62588501 145.87321472 C-69.75 147.4375 -69.75 147.4375 -72.25 147.9375 C-75.64416697 147.25866661 -76.64708547 146.17919756 -78.75 143.4375 C-79.14511358 140.75502918 -79.29781052 138.48223174 -79.26757812 135.80175781 C-79.2745874 135.03683517 -79.28159668 134.27191254 -79.28881836 133.48381042 C-79.30643041 130.95237955 -79.29475095 128.42206756 -79.28125 125.890625 C-79.28394733 124.11862984 -79.28783175 122.34663612 -79.29284668 120.574646 C-79.29874882 116.85219292 -79.29016822 113.13012333 -79.27148438 109.40771484 C-79.24889361 104.68069843 -79.26168542 99.95460054 -79.28577423 95.22761917 C-79.30038461 91.56052016 -79.295554 87.89363046 -79.28526306 84.22652435 C-79.28262711 82.48694496 -79.28575284 80.74734545 -79.29518127 79.00778961 C-79.35512731 64.81718188 -77.90946223 50.98988733 -71.1875 38.1875 C-70.85161865 37.53330078 -70.5157373 36.87910156 -70.16967773 36.20507812 C-66.4131602 29.26580266 -61.39128433 23.88313285 -55.75 18.4375 C-55.04359375 17.70015625 -54.3371875 16.9628125 -53.609375 16.203125 C-42.6574578 5.41841264 -14.94811718 -8.4932484 0 0 Z " fill="#FAFCFD" transform="translate(261.75,134.5625)"/>
<path d="M0 0 C8.95079931 2.19382336 16.32833283 5.62188619 23 12 C23.62390625 12.59554687 24.2478125 13.19109375 24.890625 13.8046875 C34.1965426 23.55567072 38.3056233 35.74780136 38.29052734 48.9987793 C38.29724457 49.85998383 38.30396179 50.72118835 38.31088257 51.60848999 C38.32974716 54.43045957 38.33377983 57.25219021 38.3359375 60.07421875 C38.34236971 62.04620967 38.34909839 64.01819965 38.35610962 65.9901886 C38.36805073 70.11140152 38.37179333 74.23253078 38.37060547 78.35375977 C38.3704016 83.63318131 38.39778806 88.91206869 38.43214989 94.19136333 C38.45437873 98.25857512 38.45844437 102.32565704 38.45738602 106.39292336 C38.45974478 108.33977932 38.46858377 110.28663872 38.48405075 112.23343468 C38.50364452 114.95247495 38.49790066 117.67034524 38.48583984 120.3894043 C38.49707886 121.19107529 38.50831787 121.99274628 38.51989746 122.81871033 C38.4777639 126.55630599 38.1294342 128.78908293 36.15713501 132.00300598 C34 134 34 134 31 134.5625 C27.22508308 133.85470308 26.2667391 133.08996583 24 130 C23.62786988 126.97312972 23.4964721 124.31412955 23.54931641 121.29101562 C23.54861649 120.41237854 23.54791656 119.53374146 23.54719543 118.628479 C23.54791253 116.72090918 23.55763157 114.81332637 23.57527542 112.90583801 C23.60181479 109.87746141 23.60185153 106.85012791 23.59457397 103.82165527 C23.57892777 95.21166593 23.61305039 86.60203836 23.66015625 77.9921875 C23.68715016 72.72243089 23.68477911 67.45329766 23.66569138 62.18351746 C23.66461541 60.18382565 23.67494066 58.18409145 23.69731522 56.18452454 C23.83830503 43.53446929 23.67412846 33.4752032 14.81924438 23.55749512 C7.82675251 16.60470695 -0.11576165 13.63729061 -9.87109375 13.37109375 C-12.53718665 12.90636196 -13.41338562 12.16720512 -15 10 C-15.65117934 3.92232615 -15.65117934 3.92232615 -13.80859375 1.3125 C-9.85780025 -1.55459852 -4.61365505 -0.54676499 0 0 Z " fill="#F4F7FB" transform="translate(265,160)"/>
<path d="M0 0 C1.11890625 0.37382813 2.2378125 0.74765625 3.390625 1.1328125 C16.06963746 5.66961554 27.01797515 11.96454647 37 21 C37.50402344 21.44956055 38.00804687 21.89912109 38.52734375 22.36230469 C40.08113771 23.76207543 41.60636325 25.18723153 43.125 26.625 C44.49011719 27.91277344 44.49011719 27.91277344 45.8828125 29.2265625 C48.43422344 32.56881668 48.83327545 34.83678988 49 39 C48 41.4375 48 41.4375 46 43 C42.828125 43.5390625 42.828125 43.5390625 39 43 C36.2127285 40.98634009 34.03322044 38.49492266 31.75 35.9375 C25.98501902 29.8340731 20.46232891 24.97990875 13 21 C12.24074219 20.5565625 11.48148437 20.113125 10.69921875 19.65625 C-9.30751506 8.62732783 -33.24011534 7.29248927 -55 13 C-62.04709141 14.59556787 -62.04709141 14.59556787 -65.5 12.4375 C-67.40657541 9.33931496 -67.53312164 7.57953104 -67 4 C-64.51976054 0.39320489 -60.64802593 -0.15419259 -56.625 -1.125 C-55.965 -1.29386719 -55.305 -1.46273437 -54.625 -1.63671875 C-37.05016612 -6.08294166 -17.18329822 -6.05770652 0 0 Z " fill="#FAFBFD" transform="translate(286,111)"/>
<path d="M0 0 C6.25423729 0.34745763 6.25423729 0.34745763 9 2.75 C10.29303964 5.65933919 9.88030978 6.97393512 9 10 C7.6875 11.78125 7.6875 11.78125 6 13.5 C-15.19565885 36.78047775 -17.48543529 61.46032035 -17.36035156 91.73266602 C-17.35181953 95.14903423 -17.37336187 98.56420639 -17.3984375 101.98046875 C-17.38509369 103.02833054 -17.37174988 104.07619232 -17.35800171 105.1558075 C-17.43182668 112.36292354 -17.43182668 112.36292354 -20.37353516 115.66137695 C-23.28120812 117.14332256 -24.79308473 117.59074755 -28 117 C-30.24722099 115.33222347 -30.92804 114.4434968 -31.38095093 111.65216064 C-31.38333771 110.72699646 -31.38572449 109.80183228 -31.38818359 108.84863281 C-31.39764008 107.79613342 -31.40709656 106.74363403 -31.4168396 105.65924072 C-31.41076691 104.51872253 -31.40469421 103.37820435 -31.3984375 102.203125 C-31.40130768 101.02216248 -31.40417786 99.84119995 -31.40713501 98.62445068 C-31.4091797 96.11600264 -31.40362169 93.60753879 -31.39111328 91.09912109 C-31.3752369 87.30658959 -31.39085979 83.51515193 -31.41015625 79.72265625 C-31.42591159 63.76447808 -30.88695377 49.11843659 -24.3125 34.3125 C-23.96292236 33.50997803 -23.61334473 32.70745605 -23.25317383 31.88061523 C-17.67068728 19.43796476 -9.56626368 9.56626368 0 0 Z " fill="#F9FBFD" transform="translate(188,133)"/>
<path d="M0 0 C3.59538694 1.97203258 6.76574897 4.48610488 10 7 C10.76828125 7.58910156 11.5365625 8.17820313 12.328125 8.78515625 C25.72162194 19.81371754 33.72592463 36.20099937 37 53 C37.39835901 57.28733783 37.44501035 61.5398283 37.43359375 65.84375 C37.4388356 67.01587036 37.44407745 68.18799072 37.44947815 69.39562988 C37.45585293 71.84935722 37.45462097 74.30311531 37.44604492 76.75683594 C37.43745863 80.51812127 37.46648384 84.27792375 37.49804688 88.0390625 C37.49965722 90.43229121 37.49908456 92.82552261 37.49609375 95.21875 C37.51294472 96.90309143 37.51294472 96.90309143 37.53013611 98.62145996 C37.51606468 100.18458923 37.51606468 100.18458923 37.50170898 101.77929688 C37.50154282 102.69352417 37.50137665 103.60775146 37.50120544 104.54968262 C36.84283304 107.76836541 35.52929662 108.97056172 33 111 C29.87713182 111.62457364 28.56721234 111.35459714 25.87084961 109.66894531 C22.8551837 105.36681042 23.49696463 100.92022046 23.56640625 95.796875 C23.55678647 93.51302021 23.54701579 91.22916606 23.53710938 88.9453125 C23.54564363 85.36482713 23.56228368 81.7845261 23.5847168 78.20410156 C23.66477132 59.34273021 22.85367932 43.57345316 11 28 C10.40445312 27.21109375 9.80890625 26.4221875 9.1953125 25.609375 C4.68873628 20.111726 -0.42355286 16.44070039 -6.4609375 12.7265625 C-9 11 -9 11 -11 8 C-11.4375 5.5625 -11.4375 5.5625 -11 3 C-7.30375059 -1.13110228 -5.21699041 -1.32546815 0 0 Z " fill="#FBFCFD" transform="translate(292,142)"/>
<path d="M0 0 C3.46469431 1.1794704 4.08471059 1.91021244 5.9375 5 C10.12282144 18.75255387 9.46321259 33.63305331 9.43847656 47.84301758 C9.43765442 51.18481902 9.46360128 54.52410025 9.50359344 57.86549854 C9.5355891 61.08348383 9.53135443 64.30141132 9.53125 67.51953125 C9.5558429 69.31158745 9.5558429 69.31158745 9.58093262 71.1398468 C9.51197041 79.3366094 9.51197041 79.3366094 6.56054688 82.74487305 C3.59972129 84.16162698 2.15238688 84.74189697 -1.0625 84 C-4.68464413 80.328773 -5.56473232 77.91371925 -5.5925293 72.80444336 C-5.60902023 71.57644516 -5.62551117 70.34844696 -5.64250183 69.08323669 C-5.64059341 67.76541702 -5.638685 66.44759735 -5.63671875 65.08984375 C-5.64917284 63.71649907 -5.66350955 62.34317029 -5.67964172 60.96986389 C-5.71760533 57.36287131 -5.73284316 53.75615294 -5.74243164 50.14898682 C-5.76220031 44.37254868 -5.81911799 38.59631884 -5.87119484 32.82010078 C-5.88650065 30.80604242 -5.89298301 28.79192326 -5.89933777 26.77781677 C-5.90988945 24.94054771 -5.90988945 24.94054771 -5.9206543 23.06616211 C-5.92413376 21.98870224 -5.92761322 20.91124237 -5.93119812 19.8011322 C-6.04614542 17.34890097 -6.3884174 15.34389188 -7.0625 13 C-7.53208176 8.62750096 -7.79631799 5.1853983 -5.4375 1.375 C-3.0625 0 -3.0625 0 0 0 Z " fill="#F3F6FB" transform="translate(347.0625,176)"/>
<path d="M0 0 C4.29 0 8.58 0 13 0 C16.63 6.6 20.26 13.2 24 20 C24.33 13.4 24.66 6.8 25 0 C27.97 0 30.94 0 34 0 C34 12.87 34 25.74 34 39 C29.71 39 25.42 39 21 39 C19.35365207 36.04195199 17.7078991 33.08357573 16.0625 30.125 C15.59392578 29.28324219 15.12535156 28.44148438 14.64257812 27.57421875 C14.19462891 26.76855469 13.74667969 25.96289062 13.28515625 25.1328125 C12.87144775 24.38918457 12.45773926 23.64555664 12.03149414 22.87939453 C11.32917066 21.59975283 10.6528003 20.3056006 10 19 C9.67 25.6 9.34 32.2 9 39 C6.03 39 3.06 39 0 39 C0 26.13 0 13.26 0 0 Z " fill="#F5F7FA" transform="translate(328,395)"/>
<path d="M0 0 C3.34125 -0.0825 6.6825 -0.165 10.125 -0.25 C11.16672363 -0.28641602 12.20844727 -0.32283203 13.28173828 -0.36035156 C19.22047571 -0.43117321 22.46521251 0.08820249 27 4 C29.48018753 6.48018753 29.32361558 7.38515951 29.375 10.8125 C29.40335938 11.66457031 29.43171875 12.51664062 29.4609375 13.39453125 C29 16 29 16 26.8046875 18.3125 C24.75849954 20.72407961 24.75849954 20.72407961 25.23388672 22.86010742 C25.96082605 25.03447635 26.81117744 27.09596989 27.75 29.1875 C31 36.92002119 31 36.92002119 31 39 C27.04 39 23.08 39 19 39 C18.67386719 37.85660156 18.34773438 36.71320313 18.01171875 35.53515625 C17.57096014 34.04407924 17.12951844 32.55320403 16.6875 31.0625 C16.36749023 29.93038086 16.36749023 29.93038086 16.04101562 28.77539062 C15.45350149 26.81993314 14.73435295 24.90518046 14 23 C13.01 22.67 12.02 22.34 11 22 C11 27.61 11 33.22 11 39 C7.37 39 3.74 39 0 39 C0 26.13 0 13.26 0 0 Z " fill="#FAFBFC" transform="translate(198,395)"/>
<path d="M0 0 C3.1875 1 3.1875 1 5.1875 3 C5.8125 6.125 5.8125 6.125 5.1875 10 C3.37362364 12.1608406 1.38133085 13.98314884 -0.703125 15.8828125 C-7.41476281 22.61930823 -8.93472349 29.96041422 -9.0234375 39.125 C-9.05149423 40.73438538 -9.08015861 42.34376026 -9.109375 43.953125 C-9.15068851 46.48111812 -9.18759262 49.00891257 -9.21386719 51.53710938 C-9.24147214 53.98347944 -9.28732484 56.42896926 -9.3359375 58.875 C-9.33919037 59.6292627 -9.34244324 60.38352539 -9.34579468 61.16064453 C-9.41988186 64.32482014 -9.63285831 66.66011927 -11.12353516 69.48046875 C-12.8125 71 -12.8125 71 -16.3125 71.4375 C-19.8125 71 -19.8125 71 -21.50500488 69.71054077 C-23.78679579 66.72536987 -23.2803608 63.02834163 -23.28125 59.4140625 C-23.28886353 58.5612973 -23.29647705 57.7085321 -23.30432129 56.82992554 C-23.31513483 55.01929648 -23.3179703 53.20860499 -23.31347656 51.39794922 C-23.31251554 48.66913533 -23.35388008 45.94324311 -23.3984375 43.21484375 C-23.49936512 28.59247361 -21.14585501 17.0651162 -10.8125 6 C-9.94238281 5.05060547 -9.94238281 5.05060547 -9.0546875 4.08203125 C-5.85651563 0.94839649 -4.62828715 0 0 0 Z " fill="#FAFBFD" transform="translate(232.8125,168)"/>
<path d="M0 0 C3.17625 -0.061875 6.3525 -0.12375 9.625 -0.1875 C11.1092749 -0.22846802 11.1092749 -0.22846802 12.62353516 -0.27026367 C18.77037267 -0.32804171 23.14152307 0.42737076 27.875 4.6875 C29.53768709 8.10524568 29.6581974 11.32140789 29 15 C27.2395325 17.99931499 25.77924074 19.53245555 22.8125 21.3125 C18.80634446 22.29178247 15.12072452 22.1230067 11 22 C11 27.61 11 33.22 11 39 C7.37 39 3.74 39 0 39 C0 26.13 0 13.26 0 0 Z " fill="#FAFBFC" transform="translate(165,395)"/>
<path d="M0 0 C3.45169294 1.66523449 6.045868 3.40018194 8.67578125 6.20703125 C8.01578125 7.52703125 7.35578125 8.84703125 6.67578125 10.20703125 C2.67578125 10.20703125 2.67578125 10.20703125 0.36328125 8.20703125 C-3.04954451 5.66725394 -5.16932042 5.88115687 -9.32421875 6.20703125 C-9.32421875 7.19703125 -9.32421875 8.18703125 -9.32421875 9.20703125 C-8.36 9.72652344 -7.39578125 10.24601562 -6.40234375 10.78125 C-5.12599427 11.4851192 -3.84996961 12.18957765 -2.57421875 12.89453125 C-1.94 13.23419922 -1.30578125 13.57386719 -0.65234375 13.92382812 C3.34259312 16.15017315 6.18153201 18.24702566 8.67578125 22.20703125 C9.44514914 25.30572677 9.33817757 28.08754087 8.67578125 31.20703125 C6.09566155 34.57552085 3.55981783 36.58512586 -0.32421875 38.20703125 C-6.26175619 38.96147083 -11.26632802 38.61816686 -16.32421875 35.20703125 C-19.19921875 32.51953125 -19.19921875 32.51953125 -21.32421875 30.20703125 C-19.67421875 28.55703125 -18.02421875 26.90703125 -16.32421875 25.20703125 C-15.54046875 26.01140625 -14.75671875 26.81578125 -13.94921875 27.64453125 C-10.64630316 30.89156911 -10.64630316 30.89156911 -6.19921875 31.26953125 C-4.77609375 31.23859375 -4.77609375 31.23859375 -3.32421875 31.20703125 C-3.42899025 29.28246013 -3.42899025 29.28246013 -4.32421875 27.20703125 C-6.6567382 25.65632813 -6.6567382 25.65632813 -9.51171875 24.39453125 C-14.54545196 21.78590388 -18.57154343 19.290601 -21.32421875 14.20703125 C-21.99910032 10.70991767 -22.15572328 8.62874096 -20.328125 5.50390625 C-15.09951963 -1.20695174 -7.99044754 -2.72615269 0 0 Z " fill="#F7F9FB" transform="translate(387.32421875,395.79296875)"/>
<path d="M0 0 C4.47307768 1.48129652 7.77972881 3.57355291 11 7 C10.34 8.32 9.68 9.64 9 11 C5 11 5 11 2.6875 9 C-0.72532576 6.46022269 -2.84510167 6.67412562 -7 7 C-7 7.99 -7 8.98 -7 10 C-4.95658629 11.40316403 -2.97046846 12.61362864 -0.8125 13.8125 C8.19266229 19.11315288 8.19266229 19.11315288 11 24 C11.61232322 27.42901003 11.79372143 29.63442416 10.0078125 32.70703125 C7.02099997 36.51939135 4.27518788 38.6273708 -0.48046875 39.40625 C-7.06186462 39.63417713 -11.00898545 38.45436386 -16.41796875 34.703125 C-18 33 -18 33 -18 29 C-17.34 28.01 -16.68 27.02 -16 26 C-14 26 -14 26 -11.4375 28.4375 C-10.633125 29.283125 -9.82875 30.12875 -9 31 C-7.81575674 32.41577477 -7.81575674 32.41577477 -4.4375 32.0625 C-2.7359375 32.0315625 -2.7359375 32.0315625 -1 32 C-1 31.01 -1 30.02 -1 29 C-4.0652692 26.98664975 -7.18324809 25.23654632 -10.40429688 23.4921875 C-14.47234477 21.19678656 -17.09410624 19.46361736 -19 15 C-19.62951161 12.23014892 -19.6124949 9.77589431 -19 7 C-13.45137554 0.10171013 -8.4722921 -0.95934549 0 0 Z " fill="#F7F9FB" transform="translate(282,395)"/>
<path d="M0 0 C7.59 0 15.18 0 23 0 C23.33 2.64 23.66 5.28 24 8 C19.71 8 15.42 8 11 8 C11 10.31 11 12.62 11 15 C14.96 15 18.92 15 23 15 C23 17.97 23 20.94 23 24 C19.04 24 15.08 24 11 24 C11 26.31 11 28.62 11 31 C15.62 31 20.24 31 25 31 C25 37 25 37 24 39 C16.08 39 8.16 39 0 39 C0 26.13 0 13.26 0 0 Z " fill="#F6F8FB" transform="translate(113,395)"/>
<path d="M0 0 C3.609375 -0.020625 7.21875 -0.04125 10.9375 -0.0625 C12.07695068 -0.071604 13.21640137 -0.08070801 14.39038086 -0.09008789 C15.28120361 -0.09258545 16.17202637 -0.09508301 17.08984375 -0.09765625 C18.46450806 -0.10551147 18.46450806 -0.10551147 19.86694336 -0.11352539 C22 0 22 0 23 1 C23.04092937 3.33297433 23.04241723 5.66705225 23 8 C19.04 8 15.08 8 11 8 C11 10.31 11 12.62 11 15 C14.63 15 18.26 15 22 15 C22 17.97 22 20.94 22 24 C18.37 24 14.74 24 11 24 C11 26.31 11 28.62 11 31 C15.29 31 19.58 31 24 31 C24 33.64 24 36.28 24 39 C16.08 39 8.16 39 0 39 C0 26.13 0 13.26 0 0 Z " fill="#FBFCFD" transform="translate(298,395)"/>
<path d="M0 0 C7.59 0 15.18 0 23 0 C23 2.64 23 5.28 23 8 C19.04 8 15.08 8 11 8 C11 10.64 11 13.28 11 16 C14.63 16 18.26 16 22 16 C22 18.31 22 20.62 22 23 C18.37 23 14.74 23 11 23 C11 25.64 11 28.28 11 31 C15.62 31 20.24 31 25 31 C24.67 33.64 24.34 36.28 24 39 C16.08 39 8.16 39 0 39 C0 26.13 0 13.26 0 0 Z " fill="#FCFDFD" transform="translate(233,395)"/>
<path d="M0 0 C2.15820312 1.36914062 2.15820312 1.36914062 4 4 C4.60765159 7.50672235 4.56015502 10.97967211 4.53125 14.53125 C4.5350769 15.55931763 4.53890381 16.58738525 4.54284668 17.64660645 C4.54556674 19.81861348 4.53819906 21.99065323 4.52148438 24.16259766 C4.50007695 27.48804729 4.52128378 30.81133635 4.546875 34.13671875 C4.54423174 36.2474006 4.53910681 38.35808111 4.53125 40.46875 C4.53934692 41.46362427 4.54744385 42.45849854 4.55578613 43.48352051 C4.46291815 50.31688294 4.46291815 50.31688294 2.19335938 53.66601562 C0 55 0 55 -3.625 54.875 C-7 54 -7 54 -9 52 C-9.26069641 49.91944885 -9.26069641 49.91944885 -9.2746582 47.32250977 C-9.28419022 46.35132706 -9.29372223 45.38014435 -9.30354309 44.37953186 C-9.30263168 43.32745041 -9.30172028 42.27536896 -9.30078125 41.19140625 C-9.30506638 40.11374496 -9.3093515 39.03608368 -9.31376648 37.92576599 C-9.31951726 35.64347029 -9.32000457 33.36115626 -9.31567383 31.07885742 C-9.31251602 27.58024919 -9.33595702 24.08248783 -9.36132812 20.58398438 C-9.36360119 18.36979274 -9.36430458 16.15559882 -9.36328125 13.94140625 C-9.372491 12.89134903 -9.38170074 11.84129181 -9.39118958 10.75941467 C-9.38496078 9.7850798 -9.37873199 8.81074493 -9.37231445 7.80688477 C-9.37294388 6.94909927 -9.3735733 6.09131378 -9.3742218 5.20753479 C-8.471296 -0.11882546 -4.8345254 -0.69064649 0 0 Z " fill="#F8FAFC" transform="translate(259,260)"/>
<path d="M0 0 C3.0625 0.4375 3.0625 0.4375 5.22070312 1.88867188 C7.96251646 5.68301589 7.63662778 9.08283355 7.59375 13.65625 C7.5975769 14.55114136 7.60140381 15.44603271 7.60534668 16.36804199 C7.6080652 18.25757982 7.60070816 20.14715532 7.58398438 22.03662109 C7.56257323 24.9276119 7.58378734 27.81611767 7.609375 30.70703125 C7.60673171 32.54427631 7.60160671 34.38151983 7.59375 36.21875 C7.60184692 37.08238159 7.60994385 37.94601318 7.61828613 38.83581543 C7.52521924 44.79715153 7.52521924 44.79715153 5.22070312 47.98632812 C2.30055815 49.94982832 0.51045322 49.95102495 -2.9375 49.4375 C-4.97490552 47.88755348 -5.82861976 47.00141292 -6.31845093 44.46447754 C-6.32083771 43.71629761 -6.32322449 42.96811768 -6.32568359 42.19726562 C-6.33514008 41.34628296 -6.34459656 40.49530029 -6.3543396 39.61853027 C-6.34826691 38.70285278 -6.34219421 37.78717529 -6.3359375 36.84375 C-6.33880768 35.90067993 -6.34167786 34.95760986 -6.34463501 33.98596191 C-6.34667646 31.99210001 -6.34114093 29.99821812 -6.32861328 28.00439453 C-6.31256089 24.94908956 -6.32845933 21.89510748 -6.34765625 18.83984375 C-6.34567383 16.90364291 -6.34183019 14.96744289 -6.3359375 13.03125 C-6.34201019 12.11557251 -6.34808289 11.19989502 -6.3543396 10.25646973 C-6.34488312 9.40548706 -6.33542664 8.55450439 -6.32568359 7.67773438 C-6.32329681 6.92955444 -6.32091003 6.18137451 -6.31845093 5.41052246 C-5.58618491 1.6179676 -3.66553121 0.54593018 0 0 Z " fill="#F8FAFC" transform="translate(255.9375,196.5625)"/>
<path d="M0 0 C2.92416189 2.20585264 3.89857407 3.40177835 4.51757812 7.05273438 C4.52208984 8.22126953 4.52660156 9.38980469 4.53125 10.59375 C4.53640625 11.87121094 4.5415625 13.14867187 4.546875 14.46484375 C4.53849609 15.12726074 4.53011719 15.78967773 4.52148438 16.47216797 C4.5000595 18.49438448 4.52129739 20.51304961 4.546875 22.53515625 C4.54171875 23.81261719 4.5365625 25.09007812 4.53125 26.40625 C4.52673828 27.57478516 4.52222656 28.74332031 4.51757812 29.94726562 C3.89610262 33.61279853 2.9824017 34.83170617 0 37 C-3.5625 37.0625 -3.5625 37.0625 -7 36 C-9.75830377 32.40089575 -10.38310643 29.70126216 -10.3984375 25.21875 C-10.40230469 24.12949219 -10.40617188 23.04023438 -10.41015625 21.91796875 C-10.39855469 20.79003906 -10.38695312 19.66210938 -10.375 18.5 C-10.38660156 17.37207031 -10.39820313 16.24414062 -10.41015625 15.08203125 C-10.40628906 13.99277344 -10.40242187 12.90351563 -10.3984375 11.78125 C-10.39505371 10.79189453 -10.39166992 9.80253906 -10.38818359 8.78320312 C-9.93517899 5.53524557 -8.91802494 3.63852805 -7 1 C-4.4086487 -0.29567565 -2.87704151 -0.34250494 0 0 Z " fill="#F0F4FA" transform="translate(219,257)"/>
<path d="M0 0 C3.63 0 7.26 0 11 0 C11 12.87 11 25.74 11 39 C7.37 39 3.74 39 0 39 C0 26.13 0 13.26 0 0 Z " fill="#FFFFFF" transform="translate(401,395)"/>
<path d="M0 0 C4.62 0 9.24 0 14 0 C13.67 1.65 13.34 3.3 13 5 C8.38 5 3.76 5 -1 5 C-0.67 3.35 -0.34 1.7 0 0 Z " fill="#FAFBFD" transform="translate(145,412)"/>
<path d="M0 0 C5.875 0.875 5.875 0.875 7 2 C7.3125 4.875 7.3125 4.875 7 8 C5.1875 9.875 5.1875 9.875 3 11 C2.01 11 1.02 11 0 11 C0 7.37 0 3.74 0 0 Z " fill="#1B4F95" transform="translate(209,401)"/>
<path d="M0 0 C4.75 0.75 4.75 0.75 7 3 C6.67028521 6.29714793 6.3773161 7.6226839 4 10 C2.68 10 1.36 10 0 10 C0 6.7 0 3.4 0 0 Z " fill="#09418D" transform="translate(176,401)"/>
</svg>
