<?xml version="1.0" encoding="UTF-8"?>
<svg version="1.1" xmlns="http://www.w3.org/2000/svg" width="1366" height="768">
<path d="M0 0 C9.26160041 8.44448682 16.50765908 18.22559995 23.44091797 28.62548828 C23.44091797 29.61548828 23.44091797 30.60548828 23.44091797 31.62548828 C22.43714111 32.00882324 21.43336426 32.3921582 20.39916992 32.78710938 C16.66236539 34.21428619 12.92575805 35.6419787 9.18920898 37.06982422 C7.57435361 37.68682619 5.95944535 38.30368975 4.34448242 38.92041016 C2.01841414 39.80871464 -0.30746123 40.69752261 -2.63330078 41.58642578 C-3.71015388 41.99748062 -3.71015388 41.99748062 -4.8087616 42.4168396 C-8.40394661 43.79143394 -11.99039556 45.18341037 -15.55908203 46.62548828 C-14.81658203 47.34736328 -14.07408203 48.06923828 -13.30908203 48.81298828 C-10.86408367 51.31355479 -8.71793115 53.88079762 -6.55908203 56.62548828 C-12.77841711 61.9384881 -19.32005693 66.59472339 -26.12158203 71.12548828 C-26.93159668 71.66592773 -27.74161133 72.20636719 -28.57617188 72.76318359 C-34.42427245 76.62548828 -34.42427245 76.62548828 -35.55908203 76.62548828 C-35.55908203 50.22548828 -35.55908203 23.82548828 -35.55908203 -3.37451172 C-48.09908203 -3.37451172 -60.63908203 -3.37451172 -73.55908203 -3.37451172 C-73.55908203 6.19548828 -73.55908203 15.76548828 -73.55908203 25.62548828 C-70.91908203 25.62548828 -68.27908203 25.62548828 -65.55908203 25.62548828 C-65.55908203 48.72548828 -65.55908203 71.82548828 -65.55908203 95.62548828 C-68.03408203 96.61548828 -68.03408203 96.61548828 -70.55908203 97.62548828 C-70.55908203 75.51548828 -70.55908203 53.40548828 -70.55908203 30.62548828 C-83.09908203 30.62548828 -95.63908203 30.62548828 -108.55908203 30.62548828 C-108.55908203 46.46548828 -108.55908203 62.30548828 -108.55908203 78.62548828 C-105.91908203 78.62548828 -103.27908203 78.62548828 -100.55908203 78.62548828 C-100.55908203 90.50548828 -100.55908203 102.38548828 -100.55908203 114.62548828 C-102.20908203 114.95548828 -103.85908203 115.28548828 -105.55908203 115.62548828 C-105.55908203 105.06548828 -105.55908203 94.50548828 -105.55908203 83.62548828 C-118.09908203 83.62548828 -130.63908203 83.62548828 -143.55908203 83.62548828 C-143.55908203 99.13548828 -143.55908203 114.64548828 -143.55908203 130.62548828 C-163.0178208 135.81448529 -163.0178208 135.81448529 -173.43408203 135.87548828 C-174.743125 135.90642578 -174.743125 135.90642578 -176.07861328 135.93798828 C-181.69713514 135.9717839 -185.60297304 135.32823684 -190.55908203 132.62548828 C-194.28360597 128.60692298 -195.98955519 125.77784222 -195.89892578 120.21923828 C-193.88255376 104.82991621 -184.20900219 92.03428716 -174.71923828 80.36376953 C-172.45585641 78.07592935 -172.45585641 78.07592935 -172.55908203 76.62548828 C-182.69283182 86.4111526 -192.27796003 96.2120793 -200.55908203 107.62548828 C-201.03023437 108.27308105 -201.50138672 108.92067383 -201.98681641 109.58789062 C-204.87837158 113.57680836 -207.73216713 117.5905425 -210.55908203 121.62548828 C-216.08574265 116.09882767 -214.85439817 103.83979571 -214.93945312 96.51245117 C-214.93768066 95.20912842 -214.9359082 93.90580566 -214.93408203 92.56298828 C-214.93353821 91.8842868 -214.93299438 91.20558533 -214.93243408 90.50631714 C-214.89080869 79.16705954 -213.94101955 68.49692727 -210.55908203 57.62548828 C-210.35009277 56.94566895 -210.14110352 56.26584961 -209.92578125 55.56542969 C-204.74474611 39.30823402 -196.54214918 24.63488874 -185.55908203 11.62548828 C-184.77919922 10.68189453 -183.99931641 9.73830078 -183.19580078 8.76611328 C-162.41814892 -15.31011834 -130.35288314 -30.88153448 -98.703125 -33.24560547 C-61.9525521 -35.45515938 -27.83235989 -24.53745477 0 0 Z " fill="#FFFFFF" transform="translate(222.55908203125,290.37451171875)"/>
<path d="M0 0 C24 0 24 0 29.5 4.375 C30.72137768 6.21482952 31.88972792 8.09106522 33 10 C34.30921017 11.66508674 35.6427123 13.31136493 37 14.9375 C37.97646484 16.175 37.97646484 16.175 38.97265625 17.4375 C42.58806903 22.00727029 46.30403201 26.49534158 50 31 C51.50028317 32.83310162 53.00028408 34.66643427 54.5 36.5 C56.70228166 39.19209947 58.90488636 41.88392614 61.109375 44.57421875 C67.76323382 52.69726902 74.37832424 60.85024522 81 69 C81.33 46.23 81.66 23.46 82 0 C91.57 0 101.14 0 111 0 C111 39.6 111 79.2 111 120 C86 120 86 120 80.5 115.1875 C79.28968358 113.15030793 78.12265333 111.08678386 77 109 C75.53939914 107.13512568 74.03858197 105.30107652 72.5 103.5 C70.30774854 100.8210008 68.11580532 98.14175792 65.92578125 95.4609375 C61.29676126 89.79659141 56.65173148 84.14570178 52 78.5 C50.20804226 76.32432437 48.41621256 74.14854344 46.62451172 71.97265625 C45.6185542 70.7511148 44.61240698 69.52972951 43.60595703 68.30859375 C42.42357831 66.8734053 41.24297777 65.43675243 40.0625 64 C39.43472656 63.236875 38.80695313 62.47375 38.16015625 61.6875 C35.05914869 57.82946527 32.03889316 53.90714835 29 50 C28.67 73.1 28.34 96.2 28 120 C18.76 120 9.52 120 0 120 C0 80.4 0 40.8 0 0 Z " fill="#FFFFFF" transform="translate(1085,321)"/>
<path d="M0 0 C9.9 -0.0825 19.8 -0.165 30 -0.25 C33.09117187 -0.28641602 36.18234375 -0.32283203 39.3671875 -0.36035156 C58.88194908 -0.49424491 78.17635332 -0.42205537 93.3125 13.625 C100.84967457 21.62363423 104.46859752 31.04792444 105 42 C104.5967013 54.97060661 101.6985557 65.93766335 92 75.125 C88.49854593 78.18877231 85.47980928 79.73679797 81 81 C85.97487449 89.15430556 91.41237449 96.95238772 96.93603516 104.74121094 C100.46463859 109.73394486 103.81100295 114.78328219 107 120 C102.58974714 120.29881838 98.18496539 120.5152596 93.76757812 120.65917969 C92.2691384 120.71919472 90.77139206 120.80085543 89.27539062 120.90527344 C84.28703608 121.24448155 79.86455139 121.26871524 75 120 C71.17333115 116.55018919 69.18268102 112.61883029 67 108 C60.86106666 95.14050715 60.86106666 95.14050715 50.01660156 87.00732422 C42.76834843 85.87023686 36.47720797 86.49591856 29 87 C29 97.89 29 108.78 29 120 C19.43 120 9.86 120 0 120 C0 80.4 0 40.8 0 0 Z M29 24 C29 37.2 29 50.4 29 64 C33.599375 64.061875 38.19875 64.12375 42.9375 64.1875 C45.08560181 64.22846802 45.08560181 64.22846802 47.27709961 64.27026367 C55.38166941 64.32283569 62.59426544 64.18477974 69.33984375 59.30859375 C74.25579673 53.55127962 76.3520685 48.20558423 75.8359375 40.57421875 C74.91850428 35.22252497 73.07312039 31.72647185 69 28 C61.27073792 22.84083474 52.84734951 23.53882848 43.9375 23.75 C39.008125 23.8325 34.07875 23.915 29 24 Z " fill="#FFFFFF" transform="translate(622,321)"/>
<path d="M0 0 C30.36 0 60.72 0 92 0 C92 7.59 92 15.18 92 23 C71.21 23 50.42 23 29 23 C29 31.25 29 39.5 29 48 C47.15 48 65.3 48 84 48 C84 55.59 84 63.18 84 71 C65.85 71 47.7 71 29 71 C29 79.58 29 88.16 29 97 C50.45 97 71.9 97 94 97 C94 104.59 94 112.18 94 120 C62.98 120 31.96 120 0 120 C0 80.4 0 40.8 0 0 Z " fill="#FFFFFF" transform="translate(747,321)"/>
<path d="M0 0 C30.03 0 60.06 0 91 0 C91 7.59 91 15.18 91 23 C70.21 23 49.42 23 28 23 C28 31.25 28 39.5 28 48 C46.48 48 64.96 48 84 48 C84 55.59 84 63.18 84 71 C65.52 71 47.04 71 28 71 C28 79.58 28 88.16 28 97 C49.45 97 70.9 97 93 97 C93 104.59 93 112.18 93 120 C62.31 120 31.62 120 0 120 C0 80.4 0 40.8 0 0 Z " fill="#FFFFFF" transform="translate(971,321)"/>
<path d="M0 0 C30.03 0 60.06 0 91 0 C91 7.59 91 15.18 91 23 C70.21 23 49.42 23 28 23 C28 31.25 28 39.5 28 48 C46.48 48 64.96 48 84 48 C84 55.59 84 63.18 84 71 C65.52 71 47.04 71 28 71 C28 79.58 28 88.16 28 97 C49.45 97 70.9 97 93 97 C93 104.59 93 112.18 93 120 C62.31 120 31.62 120 0 120 C0 80.4 0 40.8 0 0 Z " fill="#8DD4FF" transform="translate(317,321)"/>
<path d="M0 0 C9.9 -0.0825 19.8 -0.165 30 -0.25 C33.09117187 -0.28641602 36.18234375 -0.32283203 39.3671875 -0.36035156 C58.88194908 -0.49424491 78.17635332 -0.42205537 93.3125 13.625 C100.84967457 21.62363423 104.46859752 31.04792444 105 42 C104.61671092 54.32707122 101.88494183 64.97860589 93.375 74.375 C78.87658442 87.65831028 59.28672 88.20361084 40.75 88.0625 C36.8725 88.041875 32.995 88.02125 29 88 C29 98.56 29 109.12 29 120 C19.43 120 9.86 120 0 120 C0 80.4 0 40.8 0 0 Z M29 24 C29 37.2 29 50.4 29 64 C33.434375 64.061875 37.86875 64.12375 42.4375 64.1875 C43.81736084 64.21481201 45.19722168 64.24212402 46.61889648 64.27026367 C55.05805293 64.32700057 63.40976976 64.07950318 69.9375 58.0625 C70.75541016 57.33740234 70.75541016 57.33740234 71.58984375 56.59765625 C75.06724131 52.65789003 75.90905083 48.15681776 76 43 C75.42469072 36.70355952 73.77152356 32.36543645 69 28 C61.27073792 22.84083474 52.84734951 23.53882848 43.9375 23.75 C39.008125 23.8325 34.07875 23.915 29 24 Z " fill="#FFFFFF" transform="translate(497,321)"/>
<path d="M0 0 C-2.39690506 7.44302097 -5.15262441 14.71837152 -8 22 C-11.97803771 21.34677979 -15.40597573 20.10219432 -19.125 18.5625 C-30.71356928 14.05221319 -44.10131836 11.38512851 -56.08984375 16.01953125 C-59.96708551 18.00969011 -62.35238261 20.4214326 -64 24.4375 C-64 28.20113558 -63.2179826 29.93396523 -61 33 C-53.30144816 37.68550172 -43.93991926 39.18851037 -35.30078125 41.26757812 C-7.53126935 48.15479532 -7.53126935 48.15479532 0.4375 59.4375 C5.2184163 67.39686481 6.25202399 75.63935257 4.46484375 84.71875 C2.36748451 92.32884034 -1.2020154 97.62625818 -7 103 C-8.051875 103.99 -8.051875 103.99 -9.125 105 C-25.32376619 116.26870691 -45.85926613 116.3306714 -64.67919922 113.42724609 C-74.71228256 111.58021308 -87.65659734 108.34340266 -95 101 C-94.74824327 95.59129093 -92.39589008 91.3209921 -89.9375 86.625 C-89.37192383 85.52091797 -89.37192383 85.52091797 -88.79492188 84.39453125 C-87.87055636 82.59260354 -86.93627386 80.79576901 -86 79 C-82.7220625 80.25366733 -79.69570016 81.68342132 -76.625 83.375 C-66.6041608 88.34121001 -56.71086665 90.35481077 -45.625 90.5 C-44.39547607 90.52767456 -44.39547607 90.52767456 -43.14111328 90.5559082 C-37.1815679 90.49504733 -32.08527577 89.20430856 -27 86 C-24.54769363 82.32154045 -24.19391687 79.27310733 -25 75 C-31.93882127 66.67341447 -47.00553527 65.03150705 -56.97753906 62.57543945 C-68.62351201 59.68995459 -81.43970449 56.28989513 -88.50390625 45.7578125 C-93.57533791 36.94421331 -94.46591875 27.96752948 -92.3515625 17.91796875 C-88.99321637 7.65635557 -81.9052419 0.5805729 -72.5625 -4.5625 C-50.05575946 -15.25485181 -21.46775057 -11.1181429 0 0 Z " fill="#FFFFFF" transform="translate(1309,329)"/>
<path d="M0 0 C-2.39690506 7.44302097 -5.15262441 14.71837152 -8 22 C-11.97803771 21.34677979 -15.40597573 20.10219432 -19.125 18.5625 C-30.71356928 14.05221319 -44.10131836 11.38512851 -56.08984375 16.01953125 C-59.96708551 18.00969011 -62.35238261 20.4214326 -64 24.4375 C-64 28.20113558 -63.2179826 29.93396523 -61 33 C-53.30144816 37.68550172 -43.93991926 39.18851037 -35.30078125 41.26757812 C-7.53126935 48.15479532 -7.53126935 48.15479532 0.4375 59.4375 C5.2184163 67.39686481 6.25202399 75.63935257 4.46484375 84.71875 C2.36748451 92.32884034 -1.2020154 97.62625818 -7 103 C-8.051875 103.99 -8.051875 103.99 -9.125 105 C-25.32376619 116.26870691 -45.85926613 116.3306714 -64.67919922 113.42724609 C-74.71228256 111.58021308 -87.65659734 108.34340266 -95 101 C-94.74824327 95.59129093 -92.39589008 91.3209921 -89.9375 86.625 C-89.37192383 85.52091797 -89.37192383 85.52091797 -88.79492188 84.39453125 C-87.87055636 82.59260354 -86.93627386 80.79576901 -86 79 C-82.7220625 80.25366733 -79.69570016 81.68342132 -76.625 83.375 C-66.6041608 88.34121001 -56.71086665 90.35481077 -45.625 90.5 C-44.39547607 90.52767456 -44.39547607 90.52767456 -43.14111328 90.5559082 C-37.1815679 90.49504733 -32.08527577 89.20430856 -27 86 C-24.54769363 82.32154045 -24.19391687 79.27310733 -25 75 C-31.93882127 66.67341447 -47.00553527 65.03150705 -56.97753906 62.57543945 C-68.62351201 59.68995459 -81.43970449 56.28989513 -88.50390625 45.7578125 C-93.57533791 36.94421331 -94.46591875 27.96752948 -92.3515625 17.91796875 C-88.99321637 7.65635557 -81.9052419 0.5805729 -72.5625 -4.5625 C-50.05575946 -15.25485181 -21.46775057 -11.1181429 0 0 Z " fill="#FFFFFF" transform="translate(948,329)"/>
<path d="M0 0 C0.39853617 14.76842515 0.69757243 29.5361321 0.88080692 44.30885601 C0.96818307 51.16973621 1.08709149 58.02726157 1.2824707 64.88598633 C1.47114276 71.51246355 1.56898598 78.13638874 1.61291313 84.76566505 C1.64418888 87.2869922 1.70527412 89.80814093 1.79741096 92.32797813 C2.46396086 111.32284641 2.46396086 111.32284641 -1.52412796 117.27457047 C-5.96497432 122.00509655 -11.27361453 125.06420947 -17 128 C-18.41353496 128.77227566 -19.82675473 129.54512861 -21.23960876 130.31864929 C-24.43557959 132.01665584 -27.68121458 133.55361967 -31 135 C-31.37479844 120.32728566 -31.65639841 105.65520931 -31.82899475 90.97867107 C-31.9112912 84.16277686 -32.02332806 77.3498663 -32.20703125 70.53588867 C-32.38437034 63.95479726 -32.47664821 57.37597978 -32.51803589 50.79239845 C-32.54751068 48.28622578 -32.60507808 45.78021516 -32.69168091 43.27536583 C-33.32684109 24.13607186 -33.32684109 24.13607186 -29.42716789 18.88016701 C-25.68147123 15.35898809 -21.50051276 13.00012774 -16.8467617 10.8763504 C-14.49051951 9.75823441 -12.47352674 8.32466756 -10.41015625 6.73828125 C-9.83458984 6.32255859 -9.25902344 5.90683594 -8.66601562 5.47851562 C-7.53823944 4.65843964 -6.41065227 3.83810368 -5.28320312 3.01757812 C-1.1031551 0 -1.1031551 0 0 0 Z " fill="#8CD3FE" transform="translate(222,362)"/>
<path d="M0 0 C0.33 0 0.66 0 1 0 C0.52380132 7.38107946 -0.86828428 14.32504136 -2.62792969 21.48974609 C-4.33439737 28.67413159 -4.26297783 34.70436705 -2.5625 41.9375 C4.74811492 73.2636615 -1.44577675 106.64859907 -17.83398438 134.13671875 C-20.88900604 139.01861266 -24.34070761 143.55419304 -28 148 C-28.67675781 148.82886719 -29.35351562 149.65773438 -30.05078125 150.51171875 C-33.43296126 154.52411864 -33.43296126 154.52411864 -35 156 C-35.66 156 -36.32 156 -37 156 C-37 118.71 -37 81.42 -37 43 C-36.01 43 -35.02 43 -34 43 C-32.35 46.63 -30.7 50.26 -29 54 C-21.12956221 39.79445603 -13.56195274 25.45655894 -6.16992188 10.99780273 C-5.66527657 10.01296906 -5.66527657 10.01296906 -5.1504364 9.00823975 C-4.22919176 7.20973944 -3.31044161 5.40996202 -2.3918457 3.61010742 C-1 1 -1 1 0 0 Z " fill="#8CD3FE" transform="translate(263,315)"/>
<path d="M0 0 C9.57 0 19.14 0 29 0 C29 39.6 29 79.2 29 120 C19.43 120 9.86 120 0 120 C0 80.4 0 40.8 0 0 Z " fill="#FFFFFF" transform="translate(1332,321)"/>
<path d="M0 0 C0.66 0 1.32 0 2 0 C2 36.96 2 73.92 2 112 C-22 121 -22 121 -29 121 C-29.2318188 107.82212609 -29.40944248 94.644738 -29.51812172 81.46523952 C-29.57028664 75.34515243 -29.6410234 69.22646132 -29.75439453 63.10717773 C-29.86314568 57.20021444 -29.92286143 51.29459258 -29.94877243 45.3867054 C-29.96723366 43.13428691 -30.00328697 40.88194097 -30.05730057 38.63009453 C-30.46381204 20.97855068 -30.46381204 20.97855068 -26.8787384 16.1328125 C-24.29144063 14.28757025 -21.95204287 13.14630085 -19 12 C-17.35664887 11.00952225 -15.72749349 9.99465943 -14.12109375 8.9453125 C-12.56195651 8.0017947 -11.00077031 7.06165401 -9.4375 6.125 C-7.85213533 5.170481 -6.26746026 4.21481539 -4.68359375 3.2578125 C-3.99837646 2.8467627 -3.31315918 2.43571289 -2.60717773 2.01220703 C-1.02439888 1.09823198 -1.02439888 1.09823198 0 0 Z " fill="#024CAE" transform="translate(185,387)"/>
<path d="M0 0 C0 33.33 0 66.66 0 101 C-10.23 101 -20.46 101 -31 101 C-31 72.95 -31 44.9 -31 16 C-23.74 12.37 -16.48 8.74 -9 5 C-1 0 -1 0 0 0 Z " fill="#024CAE" transform="translate(152,408)"/>
<path d="M0 0 C0 26.73 0 53.46 0 81 C-6.60238767 80.33976123 -12.16964715 79.68480474 -18.375 77.8125 C-19.04015625 77.62880859 -19.7053125 77.44511719 -20.390625 77.25585938 C-27.19517241 75.24659208 -32.38513237 72.30743382 -39 69 C-39 50.85 -39 32.7 -39 14 C-31.41 11.36 -23.82 8.72 -16 6 C-10.20170221 3.56801913 -10.20170221 3.56801913 -4.44921875 1.03125 C-2 0 -2 0 0 0 Z " fill="#024CAE" transform="translate(117,427)"/>
<path d="M0 0 C0.66 0 1.32 0 2 0 C2 18.81 2 37.62 2 57 C-24.24576271 65.28813559 -24.24576271 65.28813559 -29 65 C-29.25431993 58.57793146 -29.42897096 52.15716637 -29.54931641 45.73120117 C-29.5994955 43.54743946 -29.66765942 41.36401193 -29.75439453 39.18139648 C-30.45397245 21.11994065 -30.45397245 21.11994065 -27.06567383 16.1796875 C-24.44806988 14.32399009 -21.98019248 13.17304897 -19 12 C-17.3560537 11.0105104 -15.72882915 9.99261188 -14.12109375 8.9453125 C-12.56195651 8.0017947 -11.00077031 7.06165401 -9.4375 6.125 C-7.85213533 5.170481 -6.26746026 4.21481539 -4.68359375 3.2578125 C-3.99837646 2.8467627 -3.31315918 2.43571289 -2.60717773 2.01220703 C-1.02439888 1.09823198 -1.02439888 1.09823198 0 0 Z " fill="#8CD3FE" transform="translate(185,387)"/>
<path d="M0 0 C0.43504057 6.45295666 0.73022466 12.90209444 0.93383789 19.36645508 C1.01876655 21.55864587 1.13437902 23.74988946 1.2824707 25.9387207 C2.43339558 43.40171581 2.43339558 43.40171581 -1.49786377 49.21490479 C-9.4868583 57.58672432 -20.8954836 61.9477418 -31 67 C-31 48.85 -31 30.7 -31 12 C-27.7 10.68 -24.4 9.36 -21 8 C-19.22755939 7.28721678 -17.45534685 6.57386544 -15.68359375 5.859375 C-13.06054688 4.8046875 -13.06054688 4.8046875 -10.4375 3.75 C-9.08688477 3.20472656 -9.08688477 3.20472656 -7.70898438 2.6484375 C-6.42797852 2.13410156 -6.42797852 2.13410156 -5.12109375 1.609375 C-4.3520874 1.29967773 -3.58308105 0.98998047 -2.79077148 0.67089844 C-1 0 -1 0 0 0 Z " fill="#024CAE" transform="translate(222,430)"/>
<path d="M0 0 C0 17.16 0 34.32 0 52 C-5.03059362 50.32313546 -8.46601953 48.6064298 -12.625 45.5625 C-13.23110107 45.12292969 -13.83720215 44.68335938 -14.46166992 44.23046875 C-27.41866985 34.65098206 -39.68978861 22.89488721 -48 9 C-48 8.34 -48 7.68 -48 7 C-47.43829102 6.96036133 -46.87658203 6.92072266 -46.29785156 6.87988281 C-31.9371164 5.82540287 -17.83240838 4.0988346 -3.87548828 0.44360352 C-2 0 -2 0 0 0 Z " fill="#8CD3FE" transform="translate(75,442)"/>
<path d="M0 0 C0 15.18 0 30.36 0 46 C-3.815625 46.825 -7.63125 47.65 -11.5625 48.5 C-12.75174072 48.76103516 -13.94098145 49.02207031 -15.16625977 49.29101562 C-16.12330811 49.49404297 -17.08035645 49.69707031 -18.06640625 49.90625 C-19.03521729 50.11572266 -20.00402832 50.32519531 -21.00219727 50.54101562 C-24 51 -24 51 -31 51 C-31 39.45 -31 27.9 -31 16 C-20.5 10.8125 -20.5 10.8125 -17.24023438 9.21020508 C-13.06223356 7.13315283 -4.36498417 0 0 0 Z " fill="#8CD3FE" transform="translate(152,408)"/>
<path d="M0 0 C16.17 0 32.34 0 49 0 C49 7.26 49 14.52 49 22 C32.83 22 16.66 22 0 22 C0 14.74 0 7.48 0 0 Z " fill="#FFFFFF" transform="translate(426,382)"/>
<path d="M0 0 C0 10.89 0 21.78 0 33 C-13.30496699 34.90070957 -25.64654484 36.14514625 -39 36 C-39 28.74 -39 21.48 -39 14 C-37.50210938 13.49210937 -36.00421875 12.98421875 -34.4609375 12.4609375 C-24.29145846 8.98442422 -14.24122872 5.4724994 -4.44921875 1.03125 C-2 0 -2 0 0 0 Z " fill="#8CD3FE" transform="translate(117,427)"/>
<path d="M0 0 C0.66 0.33 1.32 0.66 2 1 C-3.61222639 19.61877352 -10.56842981 35.89643476 -23 51 C-23.67675781 51.82886719 -24.35351562 52.65773438 -25.05078125 53.51171875 C-28.43296126 57.52411864 -28.43296126 57.52411864 -30 59 C-30.66 59 -31.32 59 -32 59 C-32 44.81 -32 30.62 -32 16 C-19.9375 10.25 -19.9375 10.25 -16.17553711 8.46191406 C-9.38256706 5.21804759 -9.38256706 5.21804759 -2.81640625 1.546875 C-1.88699219 1.03640625 -0.95757812 0.5259375 0 0 Z " fill="#034DAF" transform="translate(258,412)"/>
<path d="M0 0 C12.54 0 25.08 0 38 0 C38 10.23 38 20.46 38 31 C32.96921599 29.323072 29.53429309 27.60618608 25.375 24.5625 C24.77107422 24.12510498 24.16714844 23.68770996 23.54492188 23.23706055 C14.8463612 16.81219433 6.67837258 9.53347607 0 1 C0 0.67 0 0.34 0 0 Z " fill="#0851B1" transform="translate(37,463)"/>
</svg>
